<mxfile host="app.diagrams.net" agent="Mozilla/5.0 (Windows NT 10.0; Win64; x64) AppleWebKit/537.36 (KHTML, like Gecko) Chrome/131.0.0.0 Safari/537.36" version="25.0.3">
  <diagram name="Stránka-1" id="9XNf9MXfYSv-shgb9xdl">
    <mxGraphModel dx="1434" dy="900" grid="1" gridSize="10" guides="1" tooltips="1" connect="1" arrows="1" fold="1" page="1" pageScale="1" pageWidth="827" pageHeight="1169" math="0" shadow="0">
      <root>
        <mxCell id="0" />
        <mxCell id="1" parent="0" />
        <mxCell id="zUXuhCIh4GD7p0XyRasc-4" value="Faktura" style="shape=umlFrame;whiteSpace=wrap;html=1;pointerEvents=0;recursiveResize=0;container=1;collapsible=0;width=160;" parent="1" vertex="1">
          <mxGeometry x="10" y="50" width="760" height="390" as="geometry" />
        </mxCell>
        <mxCell id="zUXuhCIh4GD7p0XyRasc-7" value="" style="edgeStyle=orthogonalEdgeStyle;rounded=0;orthogonalLoop=1;jettySize=auto;html=1;" parent="zUXuhCIh4GD7p0XyRasc-4" source="zUXuhCIh4GD7p0XyRasc-3" target="zUXuhCIh4GD7p0XyRasc-2" edge="1">
          <mxGeometry relative="1" as="geometry" />
        </mxCell>
        <mxCell id="zUXuhCIh4GD7p0XyRasc-3" value="" style="ellipse;fillColor=strokeColor;html=1;" parent="zUXuhCIh4GD7p0XyRasc-4" vertex="1">
          <mxGeometry x="40" y="105" width="30" height="30" as="geometry" />
        </mxCell>
        <mxCell id="zUXuhCIh4GD7p0XyRasc-2" value="vystavená" style="html=1;align=center;verticalAlign=top;rounded=1;absoluteArcSize=1;arcSize=10;dashed=0;whiteSpace=wrap;" parent="zUXuhCIh4GD7p0XyRasc-4" vertex="1">
          <mxGeometry x="150" y="100" width="80" height="40" as="geometry" />
        </mxCell>
        <mxCell id="zUXuhCIh4GD7p0XyRasc-8" value="odeslaná" style="html=1;align=center;verticalAlign=top;rounded=1;absoluteArcSize=1;arcSize=10;dashed=0;whiteSpace=wrap;" parent="zUXuhCIh4GD7p0XyRasc-4" vertex="1">
          <mxGeometry x="340" y="100" width="80" height="40" as="geometry" />
        </mxCell>
        <mxCell id="zUXuhCIh4GD7p0XyRasc-14" value="" style="edgeStyle=orthogonalEdgeStyle;rounded=0;orthogonalLoop=1;jettySize=auto;html=1;" parent="zUXuhCIh4GD7p0XyRasc-4" source="zUXuhCIh4GD7p0XyRasc-9" target="zUXuhCIh4GD7p0XyRasc-10" edge="1">
          <mxGeometry relative="1" as="geometry" />
        </mxCell>
        <mxCell id="zUXuhCIh4GD7p0XyRasc-9" value="zaplacená" style="html=1;align=center;verticalAlign=top;rounded=1;absoluteArcSize=1;arcSize=10;dashed=0;whiteSpace=wrap;" parent="zUXuhCIh4GD7p0XyRasc-4" vertex="1">
          <mxGeometry x="510" y="100" width="80" height="40" as="geometry" />
        </mxCell>
        <mxCell id="zUXuhCIh4GD7p0XyRasc-10" value="" style="ellipse;html=1;shape=endState;fillColor=strokeColor;" parent="zUXuhCIh4GD7p0XyRasc-4" vertex="1">
          <mxGeometry x="690" y="105" width="30" height="30" as="geometry" />
        </mxCell>
        <mxCell id="zUXuhCIh4GD7p0XyRasc-11" value="nezaplacená" style="html=1;align=center;verticalAlign=top;rounded=1;absoluteArcSize=1;arcSize=10;dashed=0;whiteSpace=wrap;" parent="zUXuhCIh4GD7p0XyRasc-4" vertex="1">
          <mxGeometry x="430" y="200" width="80" height="40" as="geometry" />
        </mxCell>
        <mxCell id="zUXuhCIh4GD7p0XyRasc-21" value="odeslání zákazníkovi" style="html=1;verticalAlign=bottom;endArrow=block;curved=0;rounded=0;entryX=0;entryY=0.5;entryDx=0;entryDy=0;" parent="zUXuhCIh4GD7p0XyRasc-4" target="zUXuhCIh4GD7p0XyRasc-8" edge="1">
          <mxGeometry width="80" relative="1" as="geometry">
            <mxPoint x="230" y="119.5" as="sourcePoint" />
            <mxPoint x="310" y="119.5" as="targetPoint" />
          </mxGeometry>
        </mxCell>
        <mxCell id="zUXuhCIh4GD7p0XyRasc-22" value="zákazník provádí platbu" style="html=1;verticalAlign=bottom;endArrow=block;curved=0;rounded=0;exitX=1;exitY=0.5;exitDx=0;exitDy=0;" parent="zUXuhCIh4GD7p0XyRasc-4" source="zUXuhCIh4GD7p0XyRasc-8" edge="1">
          <mxGeometry x="0.1111" y="20" width="80" relative="1" as="geometry">
            <mxPoint x="430" y="120" as="sourcePoint" />
            <mxPoint x="510" y="120" as="targetPoint" />
            <mxPoint as="offset" />
          </mxGeometry>
        </mxCell>
        <mxCell id="zUXuhCIh4GD7p0XyRasc-23" value="kontrola platby" style="html=1;verticalAlign=bottom;endArrow=block;rounded=0;entryX=0;entryY=0.5;entryDx=0;entryDy=0;edgeStyle=orthogonalEdgeStyle;exitX=0.4;exitY=0.925;exitDx=0;exitDy=0;exitPerimeter=0;" parent="zUXuhCIh4GD7p0XyRasc-4" source="zUXuhCIh4GD7p0XyRasc-8" edge="1">
          <mxGeometry width="80" relative="1" as="geometry">
            <mxPoint x="320" y="219.5" as="sourcePoint" />
            <mxPoint x="430" y="220" as="targetPoint" />
            <Array as="points">
              <mxPoint x="372" y="220" />
            </Array>
          </mxGeometry>
        </mxCell>
        <mxCell id="zUXuhCIh4GD7p0XyRasc-26" value="invoice dispute" style="html=1;verticalAlign=bottom;endArrow=block;rounded=0;entryX=0.5;entryY=1;entryDx=0;entryDy=0;edgeStyle=orthogonalEdgeStyle;" parent="1" target="zUXuhCIh4GD7p0XyRasc-9" edge="1">
          <mxGeometry width="80" relative="1" as="geometry">
            <mxPoint x="520" y="270" as="sourcePoint" />
            <mxPoint x="600" y="270" as="targetPoint" />
            <Array as="points">
              <mxPoint x="560" y="270" />
            </Array>
          </mxGeometry>
        </mxCell>
        <mxCell id="zUXuhCIh4GD7p0XyRasc-35" value="" style="edgeStyle=orthogonalEdgeStyle;rounded=0;orthogonalLoop=1;jettySize=auto;html=1;" parent="1" target="zUXuhCIh4GD7p0XyRasc-28" edge="1">
          <mxGeometry relative="1" as="geometry">
            <mxPoint x="70" y="630" as="sourcePoint" />
          </mxGeometry>
        </mxCell>
        <mxCell id="zUXuhCIh4GD7p0XyRasc-36" value="" style="edgeStyle=orthogonalEdgeStyle;rounded=0;orthogonalLoop=1;jettySize=auto;html=1;" parent="1" source="zUXuhCIh4GD7p0XyRasc-28" target="zUXuhCIh4GD7p0XyRasc-29" edge="1">
          <mxGeometry relative="1" as="geometry" />
        </mxCell>
        <mxCell id="zUXuhCIh4GD7p0XyRasc-28" value="čeká" style="html=1;align=center;verticalAlign=top;rounded=1;absoluteArcSize=1;arcSize=10;dashed=0;whiteSpace=wrap;" parent="1" vertex="1">
          <mxGeometry x="130" y="610" width="80" height="40" as="geometry" />
        </mxCell>
        <mxCell id="zUXuhCIh4GD7p0XyRasc-37" value="" style="edgeStyle=orthogonalEdgeStyle;rounded=0;orthogonalLoop=1;jettySize=auto;html=1;" parent="1" source="zUXuhCIh4GD7p0XyRasc-29" target="zUXuhCIh4GD7p0XyRasc-30" edge="1">
          <mxGeometry relative="1" as="geometry" />
        </mxCell>
        <mxCell id="zUXuhCIh4GD7p0XyRasc-29" value="převezme dodací list" style="html=1;align=center;verticalAlign=top;rounded=1;absoluteArcSize=1;arcSize=10;dashed=0;whiteSpace=wrap;" parent="1" vertex="1">
          <mxGeometry x="280" y="610" width="80" height="40" as="geometry" />
        </mxCell>
        <mxCell id="zUXuhCIh4GD7p0XyRasc-30" value="kontroluje data" style="html=1;align=center;verticalAlign=top;rounded=1;absoluteArcSize=1;arcSize=10;dashed=0;whiteSpace=wrap;" parent="1" vertex="1">
          <mxGeometry x="430" y="610" width="80" height="40" as="geometry" />
        </mxCell>
        <mxCell id="zUXuhCIh4GD7p0XyRasc-31" value="opravuje data" style="html=1;align=center;verticalAlign=top;rounded=1;absoluteArcSize=1;arcSize=10;dashed=0;whiteSpace=wrap;" parent="1" vertex="1">
          <mxGeometry x="430" y="520" width="80" height="40" as="geometry" />
        </mxCell>
        <mxCell id="zUXuhCIh4GD7p0XyRasc-43" value="" style="edgeStyle=orthogonalEdgeStyle;rounded=0;orthogonalLoop=1;jettySize=auto;html=1;" parent="1" source="zUXuhCIh4GD7p0XyRasc-32" target="zUXuhCIh4GD7p0XyRasc-33" edge="1">
          <mxGeometry relative="1" as="geometry" />
        </mxCell>
        <mxCell id="zUXuhCIh4GD7p0XyRasc-32" value="vystavuje fakturu" style="html=1;align=center;verticalAlign=top;rounded=1;absoluteArcSize=1;arcSize=10;dashed=0;whiteSpace=wrap;" parent="1" vertex="1">
          <mxGeometry x="590" y="610" width="80" height="40" as="geometry" />
        </mxCell>
        <mxCell id="zUXuhCIh4GD7p0XyRasc-44" value="" style="edgeStyle=orthogonalEdgeStyle;rounded=0;orthogonalLoop=1;jettySize=auto;html=1;" parent="1" source="zUXuhCIh4GD7p0XyRasc-33" target="zUXuhCIh4GD7p0XyRasc-34" edge="1">
          <mxGeometry relative="1" as="geometry" />
        </mxCell>
        <mxCell id="zUXuhCIh4GD7p0XyRasc-33" value="odesílá fakturu" style="html=1;align=center;verticalAlign=top;rounded=1;absoluteArcSize=1;arcSize=10;dashed=0;whiteSpace=wrap;" parent="1" vertex="1">
          <mxGeometry x="590" y="690" width="80" height="40" as="geometry" />
        </mxCell>
        <mxCell id="zUXuhCIh4GD7p0XyRasc-34" value="kontroluje odeslání" style="html=1;align=center;verticalAlign=top;rounded=1;absoluteArcSize=1;arcSize=10;dashed=0;whiteSpace=wrap;" parent="1" vertex="1">
          <mxGeometry x="430" y="690" width="80" height="40" as="geometry" />
        </mxCell>
        <mxCell id="zUXuhCIh4GD7p0XyRasc-39" value="data špatně" style="html=1;verticalAlign=bottom;endArrow=block;curved=0;rounded=0;exitX=0.425;exitY=0;exitDx=0;exitDy=0;exitPerimeter=0;entryX=0.459;entryY=1.015;entryDx=0;entryDy=0;entryPerimeter=0;" parent="1" target="zUXuhCIh4GD7p0XyRasc-31" edge="1">
          <mxGeometry x="-0.6118" y="-34" width="80" relative="1" as="geometry">
            <mxPoint x="466" y="610" as="sourcePoint" />
            <mxPoint x="460" y="560" as="targetPoint" />
            <mxPoint as="offset" />
          </mxGeometry>
        </mxCell>
        <mxCell id="zUXuhCIh4GD7p0XyRasc-41" value="data OK" style="html=1;verticalAlign=bottom;endArrow=none;rounded=0;exitX=0.425;exitY=0;exitDx=0;exitDy=0;exitPerimeter=0;entryX=1.018;entryY=0.408;entryDx=0;entryDy=0;entryPerimeter=0;edgeStyle=orthogonalEdgeStyle;startArrow=block;startFill=1;endFill=0;" parent="1" target="zUXuhCIh4GD7p0XyRasc-31" edge="1">
          <mxGeometry x="-0.428" y="-20" width="80" relative="1" as="geometry">
            <mxPoint x="620" y="609" as="sourcePoint" />
            <mxPoint x="621" y="560" as="targetPoint" />
            <mxPoint x="-20" y="20" as="offset" />
            <Array as="points">
              <mxPoint x="620" y="570" />
              <mxPoint x="650" y="570" />
              <mxPoint x="650" y="536" />
            </Array>
          </mxGeometry>
        </mxCell>
        <mxCell id="zUXuhCIh4GD7p0XyRasc-42" value="data OK" style="html=1;verticalAlign=bottom;endArrow=block;curved=0;rounded=0;" parent="1" edge="1">
          <mxGeometry width="80" relative="1" as="geometry">
            <mxPoint x="510" y="629" as="sourcePoint" />
            <mxPoint x="590" y="629" as="targetPoint" />
          </mxGeometry>
        </mxCell>
        <mxCell id="zUXuhCIh4GD7p0XyRasc-46" value="" style="edgeStyle=orthogonalEdgeStyle;rounded=0;orthogonalLoop=1;jettySize=auto;html=1;exitX=0;exitY=0.5;exitDx=0;exitDy=0;entryX=0.4;entryY=1.034;entryDx=0;entryDy=0;entryPerimeter=0;" parent="1" source="zUXuhCIh4GD7p0XyRasc-34" target="zUXuhCIh4GD7p0XyRasc-28" edge="1">
          <mxGeometry relative="1" as="geometry">
            <mxPoint x="240" y="709.66" as="sourcePoint" />
            <mxPoint x="310" y="709.66" as="targetPoint" />
          </mxGeometry>
        </mxCell>
        <mxCell id="zUXuhCIh4GD7p0XyRasc-47" value="OK" style="text;html=1;align=center;verticalAlign=middle;resizable=0;points=[];autosize=1;strokeColor=none;fillColor=none;" parent="1" vertex="1">
          <mxGeometry x="370" y="684" width="40" height="30" as="geometry" />
        </mxCell>
        <mxCell id="zUXuhCIh4GD7p0XyRasc-48" value="" style="edgeStyle=orthogonalEdgeStyle;rounded=0;orthogonalLoop=1;jettySize=auto;html=1;exitX=0.4;exitY=0.982;exitDx=0;exitDy=0;exitPerimeter=0;entryX=0.641;entryY=1.034;entryDx=0;entryDy=0;entryPerimeter=0;" parent="1" source="zUXuhCIh4GD7p0XyRasc-34" target="zUXuhCIh4GD7p0XyRasc-33" edge="1">
          <mxGeometry relative="1" as="geometry">
            <mxPoint x="520" y="780" as="sourcePoint" />
            <mxPoint x="650" y="800" as="targetPoint" />
            <Array as="points">
              <mxPoint x="462" y="770" />
              <mxPoint x="641" y="770" />
            </Array>
          </mxGeometry>
        </mxCell>
        <mxCell id="zUXuhCIh4GD7p0XyRasc-49" value="not OK" style="edgeLabel;html=1;align=center;verticalAlign=middle;resizable=0;points=[];" parent="zUXuhCIh4GD7p0XyRasc-48" vertex="1" connectable="0">
          <mxGeometry x="0.0078" y="1" relative="1" as="geometry">
            <mxPoint y="-9" as="offset" />
          </mxGeometry>
        </mxCell>
        <mxCell id="zUXuhCIh4GD7p0XyRasc-53" value="Invoicing" style="text;html=1;align=center;verticalAlign=middle;resizable=0;points=[];autosize=1;strokeColor=default;fillColor=none;strokeWidth=1;fontSize=14;" parent="1" vertex="1">
          <mxGeometry x="5" y="470" width="80" height="30" as="geometry" />
        </mxCell>
        <mxCell id="OzUPl-nmr1flvebXIaUX-1" value="" style="ellipse;fillColor=strokeColor;html=1;" vertex="1" parent="1">
          <mxGeometry x="40" y="615" width="30" height="30" as="geometry" />
        </mxCell>
      </root>
    </mxGraphModel>
  </diagram>
</mxfile>
